/* XPM */
static char * top_right_inactive_xpm[] = {
"18 18 4 1",
" 	c None",
".	c #777778",
"+	c #262626",
"@	c #828283",
"................  ",
"++++++++++++++++@ ",
"+++++++++++++++++.",
"+++++++++++++++++.",
"+++++++++++++++++.",
"+++++++++++++++++.",
"+++++++++++++++++.",
"+++++++++++++++++.",
"+++++++++++++++++.",
"+++++++++++++++++.",
"+++++++++++++++++.",
"+++++++++++++++++.",
"+++++++++++++++++.",
"+++++++++++++++++.",
"+++++++++++++++++.",
"+++++++++++++++++.",
"+++++++++++++++++.",
"+++++++++++++++++."};
