/* XPM */
static char * close_prelight_xpm[] = {
"22 22 27 1",
" 	c None",
".	c #868786",
"+	c #868787",
"@	c #868686",
"#	c #868687",
"$	c #878787",
"%	c #878686",
"&	c #878687",
"*	c #EFEFEF",
"=	c #DECCCC",
"-	c #D14545",
";	c #CC0000",
">	c #CF2627",
",	c #ECE9EA",
"'	c #ECEAE9",
")	c #CE2726",
"!	c #E9E4E4",
"~	c #CE2626",
"{	c #ECE9E9",
"]	c #E8E4E4",
"^	c #E6DFDF",
"/	c #E5DFDF",
"(	c #E2D9D9",
"_	c #CF4343",
":	c #D5BFC0",
"<	c #DED3D3",
"[	c #D6BFBF",
"..++@@@####++++$$$%%&&",
"**********************",
"**********************",
"**********************",
"**********************",
"**********************",
"******=-******-=******",
"******-;>,**');-******",
"******!~;~{!~;~{******",
"*******!~;~~;~!*******",
"********!~;;~!********",
"********!~;;~]********",
"*******^~;~~;~/*******",
"******(~;~//~;~(******",
"******_;~(**(~;_******",
"******:_<****<_[******",
"**********************",
"**********************",
"**********************",
"**********************",
"**********************",
"**********************"};
