/* XPM */
static char * maximize_prelight_xpm[] = {
"22 22 14 1",
" 	c None",
".	c #868786",
"+	c #868787",
"@	c #868686",
"#	c #868687",
"$	c #878787",
"%	c #878686",
"&	c #878687",
"*	c #EDEDED",
"=	c #ECECEC",
"-	c #EFEFEF",
";	c #617DB0",
">	c #4A64A5",
",	c #3F5384",
"..++@@@####++++$$$%%&&",
"*********==*******==**",
"----------------------",
"----------------------",
"----------------------",
"----------------------",
"------;>>>>>>>>;------",
"------>,,,,,,,,>------",
"------>,------,>------",
"------>,------,>------",
"------>,------,>------",
"------>,------,>------",
"------>,------,>------",
"------>,------,>------",
"------>,,,,,,,,>------",
"------;>>>>>>>>;------",
"----------------------",
"----------------------",
"----------------------",
"----------------------",
"----------------------",
"----------------------"};
