/* XPM */
static char * title_1_active_xpm[] = {
"10 22 11 1",
" 	c None",
".	c #868786",
"+	c #868787",
"@	c #868686",
"#	c #868687",
"$	c #878787",
"%	c #878686",
"&	c #878687",
"*	c #EDEDED",
"=	c #ECECEC",
"-	c #EFEFEF",
".+@##++$%&",
"****=***=*",
"----------",
"----------",
"----------",
"----------",
"----------",
"----------",
"----------",
"----------",
"----------",
"----------",
"----------",
"----------",
"----------",
"----------",
"----------",
"----------",
"----------",
"----------",
"----------",
"----------"};
