/* XPM */
static char * top_right_active_shaded_xpm[] = {
"19 22 5 1",
" 	c None",
".	c #868687",
"+	c #EFEFEF",
"@	c #EDEDED",
"#	c #7B7B7C",
".................  ",
"++@@+++++++@@++++# ",
"+++++++++++++++++@.",
"++++++++++++++++++.",
"++++++++++++++++++.",
"++++++++++++++++++.",
"++++++++++++++++++.",
"++++++++++++++++++.",
"++++++++++++++++++.",
"++++++++++++++++++.",
"++++++++++++++++++.",
"++++++++++++++++++.",
"++++++++++++++++++.",
"++++++++++++++++++.",
"++++++++++++++++++.",
"++++++++++++++++++.",
"++++++++++++++++++.",
"++++++++++++++++++.",
"++++++++++++++++++.",
"++++++++++++++++++.",
"++++++++++++++++++.",
"++++++++++++++++++."};
